<?xml version="1.0" encoding="UTF-8"?>
<svg id="Capa_2" data-name="Capa 2" xmlns="http://www.w3.org/2000/svg" viewBox="0 0 257.22 224.66">
  <defs>
    <style>
      .cls-1 {
        fill: #2845af;
      }
    </style>
  </defs>
  <g id="Capa_1-2" data-name="Capa 1">
    <path class="cls-1" d="M257.22,10.95V213.71c0,6.05-4.9,10.95-10.95,10.95h-61.1c-6.05,0-10.95-4.9-10.95-10.95v-51.2l34.71-84.31c2.3-5.6-.37-12-5.97-14.3h0c-5.59-2.3-11.99,.37-14.29,5.96l-36.36,88.31v55.54c0,6.05-4.9,10.95-10.95,10.95H10.95c-6.05,0-10.95-4.9-10.95-10.95V10.95C0,4.9,4.9,0,10.95,0H60.05c6.05,0,10.95,4.9,10.95,10.95l-3.65,175.2c-.16,7.59,10.23,9.89,13.29,2.95L161.26,6.43c1.78-3.91,5.68-6.43,9.97-6.43h75.03c6.05,0,10.95,4.9,10.95,10.95Z"/>
  </g>
</svg>