<?xml version="1.0" encoding="UTF-8"?>
<svg id="Capa_2" data-name="Capa 2" xmlns="http://www.w3.org/2000/svg" viewBox="0 0 522.38 114.72">
  <defs>
    <style>
      .cls-1 {
        fill: #2845af;
      }
    </style>
  </defs>
  <g id="Capa_1-2" data-name="Capa 1">
    <g>
      <rect class="cls-1" width="25.15" height="114.72"/>
      <path class="cls-1" d="M117.05,0h-.14C108.21,0,100.72,4.32,96.36,11.86L36.98,114.72h29.04L116.98,26.46l50.96,88.26h29.04L137.6,11.86C133.24,4.33,125.75,0,117.05,0Z"/>
      <path class="cls-1" d="M204.26,34.97c0,19.28,15.69,34.97,34.97,34.97h80.38c5.41,0,9.82,4.4,9.82,9.82s-4.4,9.82-9.82,9.82h-115.35v25.15h115.35c19.28,0,34.97-15.69,34.97-34.97s-15.69-34.97-34.97-34.97h-80.38c-5.41,0-9.82-4.4-9.82-9.82s4.4-9.82,9.82-9.82h115.35V0h-115.35C219.94,0,204.26,15.69,204.26,34.97Z"/>
      <path class="cls-1" d="M407.04,25.15h115.35V0h-115.35c-19.28,0-34.97,15.69-34.97,34.97,0,19.28,15.69,34.97,34.97,34.97h80.38c5.41,0,9.82,4.4,9.82,9.82s-4.4,9.82-9.82,9.82h-115.35v25.15h115.35c19.28,0,34.97-15.69,34.97-34.97s-15.69-34.97-34.97-34.97h-80.38c-5.41,0-9.82-4.4-9.82-9.82s4.4-9.82,9.82-9.82Z"/>
    </g>
  </g>
</svg>